<svg width="17" height="16" viewBox="0 0 17 16" fill="none" xmlns="http://www.w3.org/2000/svg">
<path d="M0.5 4C0.5 3.46957 0.710714 2.96086 1.08579 2.58579C1.46086 2.21071 1.96957 2 2.5 2H14.5C15.0304 2 15.5391 2.21071 15.9142 2.58579C16.2893 2.96086 16.5 3.46957 16.5 4V12C16.5 12.5304 16.2893 13.0391 15.9142 13.4142C15.5391 13.7893 15.0304 14 14.5 14H2.5C1.96957 14 1.46086 13.7893 1.08579 13.4142C0.710714 13.0391 0.5 12.5304 0.5 12V4ZM2.5 3C2.23478 3 1.98043 3.10536 1.79289 3.29289C1.60536 3.48043 1.5 3.73478 1.5 4V4.217L8.5 8.417L15.5 4.217V4C15.5 3.73478 15.3946 3.48043 15.2071 3.29289C15.0196 3.10536 14.7652 3 14.5 3H2.5ZM15.5 5.383L10.742 8.238L15.5 11.114V5.384V5.383ZM15.466 12.261L9.771 8.82L8.5 9.583L7.228 8.82L1.534 12.26C1.5912 12.4724 1.71685 12.6601 1.89149 12.7938C2.06613 12.9276 2.28001 13.0001 2.5 13H14.5C14.7199 13.0001 14.9336 12.9278 15.1083 12.7942C15.2829 12.6607 15.4086 12.4732 15.466 12.261ZM1.5 11.114L6.258 8.238L1.5 5.383V11.113V11.114Z" fill="white"/>
</svg>
