<svg width="23" height="23" viewBox="0 0 23 23" fill="none" xmlns="http://www.w3.org/2000/svg">
<path d="M11.5262 0H11.4738C5.13701 0 0 5.137 0 11.4738V11.5262C0 17.863 5.13701 23 11.4738 23H11.5262C17.863 23 23 17.863 23 11.5262V11.4738C23 5.137 17.863 0 11.5262 0Z" fill="#567DFF"/>
<path d="M5.48515 7.64501C5.18217 7.36378 5.03149 7.01568 5.03149 6.6015C5.03149 6.18732 5.18298 5.8239 5.48515 5.54187C5.78813 5.26064 6.17814 5.11963 6.65598 5.11963C7.13382 5.11963 7.50853 5.26064 7.8107 5.54187C8.11368 5.82309 8.26436 6.17684 8.26436 6.6015C8.26436 7.02616 8.11288 7.36378 7.8107 7.64501C7.50772 7.92623 7.12335 8.06725 6.65598 8.06725C6.18862 8.06725 5.78813 7.92623 5.48515 7.64501ZM8.00973 9.25822V17.8803H5.28531V9.25822H8.00973Z" fill="white"/>
<path d="M17.079 10.1095C17.6729 10.7542 17.9694 11.639 17.9694 12.7655V17.7276H15.382V13.1152C15.382 12.5471 15.2345 12.1055 14.9404 11.7912C14.6463 11.477 14.2499 11.319 13.7535 11.319C13.2571 11.319 12.8606 11.4762 12.5665 11.7912C12.2724 12.1055 12.1249 12.5471 12.1249 13.1152V17.7276H9.52222V9.23363H12.1249V10.3601C12.3884 9.98464 12.7438 9.68811 13.1902 9.46974C13.6366 9.25137 14.1386 9.14258 14.6971 9.14258C15.6914 9.14258 16.4859 9.4649 17.079 10.1087V10.1095Z" fill="white"/>
</svg>
