<svg width="23" height="23" viewBox="0 0 23 23" fill="none" xmlns="http://www.w3.org/2000/svg">
<path d="M11.5262 0H11.4738C5.13701 0 0 5.137 0 11.4738V11.5262C0 17.863 5.13701 23 11.4738 23H11.5262C17.863 23 23 17.863 23 11.5262V11.4738C23 5.137 17.863 0 11.5262 0Z" fill="white"/>
<path d="M5.48515 7.64476C5.18217 7.36354 5.03149 7.01544 5.03149 6.60126C5.03149 6.18707 5.18298 5.82365 5.48515 5.54162C5.78813 5.2604 6.17814 5.11938 6.65598 5.11938C7.13382 5.11938 7.50853 5.2604 7.8107 5.54162C8.11368 5.82285 8.26436 6.1766 8.26436 6.60126C8.26436 7.02591 8.11288 7.36354 7.8107 7.64476C7.50772 7.92599 7.12335 8.067 6.65598 8.067C6.18862 8.067 5.78813 7.92599 5.48515 7.64476ZM8.00973 9.25798V17.8801H5.28531V9.25798H8.00973Z" fill="#567DFF"/>
<path d="M17.079 10.1092C17.6729 10.7538 17.9694 11.6386 17.9694 12.7651V17.7272H15.382V13.1148C15.382 12.5467 15.2345 12.1051 14.9404 11.7909C14.6463 11.4766 14.2499 11.3187 13.7535 11.3187C13.2571 11.3187 12.8606 11.4758 12.5665 11.7909C12.2724 12.1051 12.1249 12.5467 12.1249 13.1148V17.7272H9.52222V9.23327H12.1249V10.3598C12.3884 9.98427 12.7438 9.68774 13.1902 9.46937C13.6366 9.251 14.1386 9.14221 14.6971 9.14221C15.6914 9.14221 16.4859 9.46453 17.079 10.1084V10.1092Z" fill="#567DFF"/>
</svg>
