<svg width="125" height="16" viewBox="0 0 125 16" fill="none" xmlns="http://www.w3.org/2000/svg">
<path d="M1.04 15C0.906667 15 0.793333 14.96 0.7 14.88C0.606667 14.7867 0.56 14.6667 0.56 14.52V1.5C0.56 1.35333 0.606667 1.23333 0.7 1.14C0.793333 1.04667 0.906667 0.999999 1.04 0.999999H2.86C3.00667 0.999999 3.12 1.04667 3.2 1.14C3.29333 1.23333 3.34 1.35333 3.34 1.5V6.66H9.24V1.5C9.24 1.35333 9.28667 1.23333 9.38 1.14C9.47333 1.04667 9.58667 0.999999 9.72 0.999999H11.52C11.6667 0.999999 11.7867 1.04667 11.88 1.14C11.9733 1.23333 12.02 1.35333 12.02 1.5V14.52C12.02 14.6533 11.9733 14.7667 11.88 14.86C11.7867 14.9533 11.6667 15 11.52 15H9.72C9.58667 15 9.47333 14.9533 9.38 14.86C9.28667 14.7667 9.24 14.6533 9.24 14.52V9.16H3.34V14.52C3.34 14.6533 3.29333 14.7667 3.2 14.86C3.12 14.9533 3.00667 15 2.86 15H1.04ZM18.8103 15C18.677 15 18.5636 14.9533 18.4703 14.86C18.377 14.7667 18.3303 14.6533 18.3303 14.52V1.48C18.3303 1.34667 18.377 1.23333 18.4703 1.14C18.5636 1.04667 18.677 0.999999 18.8103 0.999999H20.6903C20.837 0.999999 20.9503 1.04667 21.0303 1.14C21.1236 1.23333 21.1703 1.34667 21.1703 1.48V14.52C21.1703 14.6533 21.1236 14.7667 21.0303 14.86C20.9503 14.9533 20.837 15 20.6903 15H18.8103ZM27.9869 15C27.8535 15 27.7402 14.9533 27.6469 14.86C27.5535 14.7667 27.5069 14.6533 27.5069 14.52V1.5C27.5069 1.35333 27.5535 1.23333 27.6469 1.14C27.7402 1.04667 27.8535 0.999999 27.9869 0.999999H32.8669C34.2135 0.999999 35.3202 1.20667 36.1869 1.62C37.0669 2.03333 37.7269 2.64667 38.1669 3.46C38.6202 4.27333 38.8535 5.26667 38.8669 6.44C38.8935 7.02667 38.9069 7.54667 38.9069 8C38.9069 8.45333 38.8935 8.96667 38.8669 9.54C38.8402 10.78 38.6135 11.8067 38.1869 12.62C37.7602 13.42 37.1135 14.02 36.2469 14.42C35.3935 14.8067 34.3002 15 32.9669 15H27.9869ZM30.2869 12.7H32.8669C33.6135 12.7 34.2202 12.5933 34.6869 12.38C35.1535 12.1667 35.4935 11.8267 35.7069 11.36C35.9335 10.88 36.0535 10.2533 36.0669 9.48C36.0802 9.08 36.0869 8.73333 36.0869 8.44C36.1002 8.13333 36.1002 7.83333 36.0869 7.54C36.0869 7.23333 36.0802 6.88667 36.0669 6.5C36.0402 5.40667 35.7669 4.6 35.2469 4.08C34.7269 3.56 33.9002 3.3 32.7669 3.3H30.2869V12.7ZM45.2494 15C45.116 15 45.0027 14.9533 44.9094 14.86C44.816 14.7667 44.7694 14.6533 44.7694 14.52V1.5C44.7694 1.35333 44.816 1.23333 44.9094 1.14C45.0027 1.04667 45.116 0.999999 45.2494 0.999999H54.0494C54.196 0.999999 54.316 1.04667 54.4094 1.14C54.5027 1.23333 54.5494 1.35333 54.5494 1.5V2.82C54.5494 2.95333 54.5027 3.06667 54.4094 3.16C54.316 3.25333 54.196 3.3 54.0494 3.3H47.4694V6.84H53.6094C53.756 6.84 53.876 6.88667 53.9694 6.98C54.0627 7.06 54.1094 7.17333 54.1094 7.32V8.56C54.1094 8.70667 54.0627 8.82667 53.9694 8.92C53.876 9 53.756 9.04 53.6094 9.04H47.4694V12.7H54.2094C54.356 12.7 54.476 12.7467 54.5694 12.84C54.6627 12.9333 54.7094 13.0533 54.7094 13.2V14.52C54.7094 14.6533 54.6627 14.7667 54.5694 14.86C54.476 14.9533 54.356 15 54.2094 15H45.2494ZM65.7336 15.2C64.5069 15.2 63.4603 14.9867 62.5936 14.56C61.7403 14.1333 61.0736 13.52 60.5936 12.72C60.1269 11.9067 59.8736 10.94 59.8336 9.82C59.8203 9.24667 59.8136 8.63333 59.8136 7.98C59.8136 7.31333 59.8203 6.68667 59.8336 6.1C59.8736 4.99333 60.1269 4.04667 60.5936 3.26C61.0736 2.47333 61.7469 1.86667 62.6136 1.44C63.4936 1.01333 64.5336 0.799999 65.7336 0.799999C66.7069 0.799999 67.5603 0.933332 68.2936 1.2C69.0269 1.45333 69.6336 1.78667 70.1136 2.2C70.6069 2.6 70.9736 3.03333 71.2136 3.5C71.4669 3.96667 71.6003 4.4 71.6136 4.8C71.6269 4.92 71.5936 5.02 71.5136 5.1C71.4336 5.18 71.3269 5.22 71.1936 5.22H69.1336C69.0003 5.22 68.9003 5.19333 68.8336 5.14C68.7669 5.08667 68.7069 5.00667 68.6536 4.9C68.5469 4.62 68.3803 4.34667 68.1536 4.08C67.9269 3.8 67.6203 3.56667 67.2336 3.38C66.8469 3.19333 66.3469 3.1 65.7336 3.1C64.8269 3.1 64.1003 3.34 63.5536 3.82C63.0203 4.3 62.7336 5.09333 62.6936 6.2C62.6536 7.36 62.6536 8.53333 62.6936 9.72C62.7336 10.8533 63.0269 11.6667 63.5736 12.16C64.1336 12.6533 64.8669 12.9 65.7736 12.9C66.3736 12.9 66.9069 12.7933 67.3736 12.58C67.8536 12.3667 68.2269 12.0333 68.4936 11.58C68.7736 11.1267 68.9136 10.5467 68.9136 9.84V9.22H66.4736C66.3403 9.22 66.2269 9.17333 66.1336 9.08C66.0403 8.98667 65.9936 8.86667 65.9936 8.72V7.66C65.9936 7.51333 66.0403 7.39333 66.1336 7.3C66.2269 7.20667 66.3403 7.16 66.4736 7.16H71.2536C71.4003 7.16 71.5136 7.20667 71.5936 7.3C71.6869 7.39333 71.7336 7.51333 71.7336 7.66V9.76C71.7336 10.88 71.4869 11.8467 70.9936 12.66C70.5136 13.4733 69.8203 14.1 68.9136 14.54C68.0203 14.98 66.9603 15.2 65.7336 15.2ZM77.9775 15C77.8442 15 77.7308 14.9533 77.6375 14.86C77.5442 14.7667 77.4975 14.6533 77.4975 14.52V1.5C77.4975 1.35333 77.5442 1.23333 77.6375 1.14C77.7308 1.04667 77.8442 0.999999 77.9775 0.999999H83.1575C84.7708 0.999999 86.0442 1.37333 86.9775 2.12C87.9108 2.86667 88.3775 3.95333 88.3775 5.38C88.3775 6.36667 88.1308 7.18667 87.6375 7.84C87.1575 8.49333 86.5108 8.96667 85.6975 9.26L88.6175 14.36C88.6575 14.44 88.6775 14.5133 88.6775 14.58C88.6775 14.7 88.6308 14.8 88.5375 14.88C88.4575 14.96 88.3642 15 88.2575 15H86.4375C86.2108 15 86.0375 14.94 85.9175 14.82C85.7975 14.7 85.7042 14.58 85.6375 14.46L83.0575 9.72H80.2775V14.52C80.2775 14.6533 80.2308 14.7667 80.1375 14.86C80.0575 14.9533 79.9442 15 79.7975 15H77.9775ZM80.2775 7.46H83.0975C83.9108 7.46 84.5175 7.28 84.9175 6.92C85.3175 6.54667 85.5175 6.02667 85.5175 5.36C85.5175 4.69333 85.3175 4.17333 84.9175 3.8C84.5308 3.41333 83.9242 3.22 83.0975 3.22H80.2775V7.46ZM93.2945 15C93.1879 15 93.0879 14.96 92.9945 14.88C92.9145 14.8 92.8745 14.7 92.8745 14.58C92.8745 14.5267 92.8879 14.4667 92.9145 14.4L97.7345 1.5C97.7745 1.36667 97.8479 1.25333 97.9545 1.16C98.0745 1.05333 98.2345 0.999999 98.4345 0.999999H100.615C100.815 0.999999 100.968 1.05333 101.075 1.16C101.181 1.25333 101.261 1.36667 101.315 1.5L106.135 14.4C106.148 14.4667 106.155 14.5267 106.155 14.58C106.155 14.7 106.115 14.8 106.035 14.88C105.955 14.96 105.861 15 105.755 15H104.015C103.828 15 103.688 14.96 103.595 14.88C103.515 14.7867 103.461 14.7 103.435 14.62L102.495 12.18H96.5545L95.6145 14.62C95.5879 14.7 95.5279 14.7867 95.4345 14.88C95.3545 14.96 95.2212 15 95.0345 15H93.2945ZM97.2545 9.88H101.795L99.5145 3.7L97.2545 9.88ZM111.722 15C111.575 15 111.455 14.9533 111.362 14.86C111.268 14.7667 111.222 14.6533 111.222 14.52V1.5C111.222 1.35333 111.268 1.23333 111.362 1.14C111.455 1.04667 111.575 0.999999 111.722 0.999999H113.302C113.488 0.999999 113.628 1.05333 113.722 1.16C113.815 1.25333 113.875 1.32667 113.902 1.38L117.762 8.58L121.662 1.38C121.688 1.32667 121.748 1.25333 121.842 1.16C121.935 1.05333 122.075 0.999999 122.262 0.999999H123.822C123.968 0.999999 124.088 1.04667 124.182 1.14C124.275 1.23333 124.322 1.35333 124.322 1.5V14.52C124.322 14.6533 124.275 14.7667 124.182 14.86C124.088 14.9533 123.968 15 123.822 15H122.142C121.995 15 121.875 14.9533 121.782 14.86C121.702 14.7667 121.662 14.6533 121.662 14.52V5.86L118.862 11.2C118.795 11.32 118.708 11.4267 118.602 11.52C118.495 11.6 118.355 11.64 118.182 11.64H117.362C117.175 11.64 117.028 11.6 116.922 11.52C116.828 11.4267 116.748 11.32 116.682 11.2L113.882 5.86V14.52C113.882 14.6533 113.835 14.7667 113.742 14.86C113.648 14.9533 113.535 15 113.402 15H111.722Z" fill="black"/>
</svg>
