<svg width="23" height="23" viewBox="0 0 23 23" fill="none" xmlns="http://www.w3.org/2000/svg">
<path d="M11.5262 0H11.4738C5.137 0 0 5.137 0 11.4738V11.5262C0 17.863 5.137 23 11.4738 23H11.5262C17.863 23 23 17.863 23 11.5262V11.4738C23 5.137 17.863 0 11.5262 0Z" fill="white"/>
<path d="M18.6262 11.2119C18.4352 10.3457 17.6439 9.78401 16.859 9.95726C16.5915 10.0161 16.361 10.1539 16.1789 10.3424C15.1225 9.57531 13.6801 9.06846 12.0693 8.97257L12.8405 5.76226L15.1282 6.3094C15.166 6.93471 15.6842 7.43027 16.3191 7.43027C16.9541 7.43027 17.5133 6.89522 17.5133 6.23607C17.5133 5.57693 16.9783 5.04187 16.3191 5.04187C15.8413 5.04187 15.4295 5.3231 15.2394 5.72922L12.7575 5.13535C12.5625 5.08861 12.3667 5.20867 12.3191 5.40367L11.4658 8.95646C9.66886 8.96613 8.04758 9.48587 6.88401 10.3183C6.82679 10.2651 6.76556 10.2159 6.69868 10.1724C6.021 9.7397 5.08465 9.99513 4.60762 10.7421C4.13058 11.4899 4.29255 12.4464 4.97023 12.8791C5.01052 12.9049 5.05162 12.9274 5.09352 12.9484C5.06612 13.1152 5.05161 13.2852 5.05161 13.4569C5.05161 15.9428 7.94525 17.9581 11.515 17.9581C15.0847 17.9581 17.9783 15.9428 17.9783 13.4569C17.9783 13.2828 17.963 13.1112 17.9348 12.9428C18.4851 12.6229 18.7849 11.9258 18.6278 11.2119H18.6262ZM8.20069 12.4141C8.20069 11.8477 8.66 11.3884 9.22648 11.3884C9.79295 11.3884 10.2523 11.8477 10.2523 12.4141C10.2523 12.9806 9.79295 13.4399 9.22648 13.4399C8.66 13.4399 8.20069 12.9806 8.20069 12.4141ZM13.8977 15.6527C13.5826 15.9387 12.7124 16.6059 11.4384 16.618C11.4271 16.618 11.415 16.618 11.4037 16.618C10.1129 16.618 9.23131 15.9444 8.90979 15.6527C8.80665 15.5592 8.7994 15.3996 8.89287 15.2973C8.98635 15.1942 9.1459 15.1869 9.24823 15.2804C9.52785 15.535 10.3006 16.1257 11.4336 16.1152C12.5351 16.1047 13.2869 15.5286 13.5593 15.2812C13.6624 15.1877 13.8212 15.195 13.9146 15.2981C14.0081 15.4013 14.0009 15.56 13.8977 15.6535V15.6527ZM13.7736 13.4399C13.2071 13.4399 12.7478 12.9806 12.7478 12.4141C12.7478 11.8477 13.2071 11.3884 13.7736 11.3884C14.3401 11.3884 14.7994 11.8477 14.7994 12.4141C14.7994 12.9806 14.3401 13.4399 13.7736 13.4399Z" fill="#567DFF"/>
</svg>
