<svg width="23" height="23" viewBox="0 0 23 23" fill="none" xmlns="http://www.w3.org/2000/svg">
<path d="M11.5262 0H11.4738C5.137 0 0 5.137 0 11.4738V11.5262C0 17.863 5.137 23 11.4738 23H11.5262C17.863 23 23 17.863 23 11.5262V11.4738C23 5.137 17.863 0 11.5262 0Z" fill="#567DFF"/>
<path d="M18.6262 11.212C18.4352 10.3458 17.6439 9.78413 16.859 9.95738C16.5915 10.0162 16.361 10.154 16.1789 10.3426C15.1225 9.57543 13.6801 9.06858 12.0693 8.97269L12.8405 5.76238L15.1282 6.30953C15.166 6.93483 15.6842 7.43039 16.3191 7.43039C16.9541 7.43039 17.5133 6.89534 17.5133 6.2362C17.5133 5.57705 16.9783 5.04199 16.3191 5.04199C15.8413 5.04199 15.4295 5.32322 15.2394 5.72934L12.7575 5.13547C12.5625 5.08873 12.3667 5.20879 12.3191 5.4038L11.4658 8.95658C9.66886 8.96625 8.04758 9.486 6.88401 10.3184C6.82679 10.2652 6.76556 10.216 6.69868 10.1725C6.021 9.73982 5.08465 9.99525 4.60762 10.7422C4.13058 11.49 4.29255 12.4465 4.97023 12.8792C5.01052 12.905 5.05162 12.9276 5.09352 12.9485C5.06612 13.1153 5.05161 13.2853 5.05161 13.457C5.05161 15.9429 7.94525 17.9582 11.515 17.9582C15.0847 17.9582 17.9783 15.9429 17.9783 13.457C17.9783 13.2829 17.963 13.1113 17.9348 12.9429C18.4851 12.623 18.7849 11.926 18.6278 11.212H18.6262ZM8.20069 12.4143C8.20069 11.8478 8.66 11.3885 9.22648 11.3885C9.79295 11.3885 10.2523 11.8478 10.2523 12.4143C10.2523 12.9807 9.79295 13.4401 9.22648 13.4401C8.66 13.4401 8.20069 12.9807 8.20069 12.4143ZM13.8977 15.6528C13.5826 15.9389 12.7124 16.6061 11.4384 16.6181C11.4271 16.6181 11.415 16.6181 11.4037 16.6181C10.1129 16.6181 9.23131 15.9445 8.90979 15.6528C8.80665 15.5593 8.7994 15.3998 8.89287 15.2974C8.98635 15.1943 9.1459 15.187 9.24823 15.2805C9.52785 15.5351 10.3006 16.1258 11.4336 16.1153C12.5351 16.1048 13.2869 15.5287 13.5593 15.2813C13.6624 15.1878 13.8212 15.1951 13.9146 15.2982C14.0081 15.4014 14.0009 15.5601 13.8977 15.6536V15.6528ZM13.7736 13.4401C13.2071 13.4401 12.7478 12.9807 12.7478 12.4143C12.7478 11.8478 13.2071 11.3885 13.7736 11.3885C14.3401 11.3885 14.7994 11.8478 14.7994 12.4143C14.7994 12.9807 14.3401 13.4401 13.7736 13.4401Z" fill="white"/>
</svg>
