<svg width="23" height="23" viewBox="0 0 23 23" fill="none" xmlns="http://www.w3.org/2000/svg">
<path d="M23 11.5003C23 17.3084 18.6943 22.11 13.1012 22.8894C12.5781 22.9623 12.043 23 11.5 23C10.8729 23 10.2577 22.9497 9.65772 22.853C4.18254 21.9716 0 17.2237 0 11.4997C0 5.14856 5.1487 0 11.5 0C17.8513 0 23 5.14856 23 11.4997V11.5003Z" fill="#567DFF"/>
<path d="M18.2969 7.28728C17.9777 7.60977 17.5353 7.80909 17.0453 7.80909C16.9831 7.80909 16.9208 7.80578 16.8606 7.79915C17.3718 7.49256 17.7665 7.01247 17.9631 6.43967C17.9631 6.43967 17.9638 6.43967 17.9638 6.43901C17.991 6.36219 18.0141 6.28472 18.0327 6.20459C17.6281 6.637 17.0751 6.92969 16.4546 6.99922C16.3593 7.01048 16.2626 7.01578 16.1646 7.01578C16.1335 7.01578 16.1036 7.01512 16.0738 7.01313C15.8639 6.79262 15.6136 6.61052 15.3362 6.47675C15.0269 6.32577 14.6812 6.23704 14.3163 6.22578C14.2865 6.22379 14.2567 6.22313 14.2256 6.22313C13.9164 6.22313 13.6197 6.27809 13.3455 6.37941C13.2753 6.40523 13.2071 6.43305 13.1402 6.46549C12.2714 6.87274 11.6701 7.75545 11.6701 8.77854C11.6701 8.98846 11.696 9.19241 11.743 9.3871C11.4768 9.3765 11.2132 9.35068 10.9549 9.31227C10.8722 9.29902 10.7894 9.28512 10.7073 9.26923C10.0484 9.14672 9.41993 8.93614 8.83586 8.65007C8.31338 8.39447 7.82598 8.07926 7.38296 7.71241C7.01014 7.40515 6.6691 7.06213 6.36448 6.68733C6.35123 6.67144 6.33799 6.65488 6.32541 6.63899C6.30753 6.66614 6.29097 6.69329 6.27641 6.72176C6.06317 7.09458 5.94265 7.52567 5.94265 7.98523C5.94265 7.99914 5.94265 8.01437 5.94331 8.02827C5.94861 8.37261 6.02145 8.7004 6.15191 8.99839C6.20754 9.13083 6.27508 9.25598 6.35256 9.37451C6.58103 9.72614 6.89293 10.0188 7.26112 10.2215C7.27767 10.2321 7.29489 10.2407 7.31211 10.2486C7.28562 10.2539 7.25846 10.2585 7.23131 10.2612C7.15582 10.2711 7.07768 10.2764 6.99954 10.2764C6.60751 10.2764 6.24263 10.1539 5.94397 9.94533C5.94199 9.96718 5.94198 9.98969 5.94198 10.0122C5.94198 10.7419 6.24793 11.4002 6.73797 11.8644C7.1194 12.2286 7.61275 12.4729 8.16106 12.5444C7.96372 12.6166 7.75049 12.6557 7.52865 12.6557C7.28827 12.6557 7.05782 12.61 6.84723 12.5259C7.16112 13.5463 8.09683 14.2946 9.21199 14.3277C8.53058 15.0356 7.57368 15.4753 6.5148 15.4753C5.85656 15.4753 5.23805 15.3051 4.70166 15.0071C5.99099 16.1229 7.67235 16.7971 9.51132 16.7971C13.5753 16.7971 16.8692 13.5033 16.8692 9.43941C16.8692 9.21559 16.8592 8.99442 16.8394 8.77589C17.5115 8.51035 18.0446 7.96801 18.2969 7.28794V7.28728Z" fill="white"/>
</svg>
