<svg width="23" height="23" viewBox="0 0 23 23" fill="none" xmlns="http://www.w3.org/2000/svg">
<path d="M23 11.5003C23 17.3084 18.6943 22.11 13.1012 22.8894C12.5781 22.9623 12.043 23 11.5 23C10.8729 23 10.2577 22.9497 9.65772 22.853C4.18254 21.9716 0 17.2237 0 11.4997C0 5.14856 5.1487 0 11.5 0C17.8513 0 23 5.14856 23 11.4997V11.5003Z" fill="white"/>
<path d="M18.2969 7.28746C17.9777 7.60995 17.5353 7.80927 17.0453 7.80927C16.9831 7.80927 16.9208 7.80596 16.8606 7.79934C17.3718 7.49274 17.7665 7.01265 17.9631 6.43985C17.9631 6.43985 17.9638 6.43985 17.9638 6.43919C17.991 6.36238 18.0141 6.2849 18.0327 6.20477C17.6281 6.63719 17.0751 6.92988 16.4546 6.99941C16.3593 7.01066 16.2626 7.01596 16.1646 7.01596C16.1335 7.01596 16.1036 7.0153 16.0738 7.01331C15.8639 6.7928 15.6136 6.6107 15.3362 6.47693C15.0269 6.32595 14.6812 6.23722 14.3163 6.22596C14.2865 6.22398 14.2567 6.22331 14.2256 6.22331C13.9164 6.22331 13.6197 6.27828 13.3455 6.37959C13.2753 6.40542 13.2071 6.43323 13.1402 6.46568C12.2714 6.87293 11.6701 7.75563 11.6701 8.77872C11.6701 8.98864 11.696 9.19259 11.743 9.38728C11.4768 9.37668 11.2132 9.35086 10.9549 9.31245C10.8722 9.29921 10.7894 9.2853 10.7073 9.26941C10.0484 9.1469 9.41993 8.93632 8.83586 8.65026C8.31338 8.39465 7.82598 8.07945 7.38296 7.71259C7.01014 7.40533 6.6691 7.06231 6.36448 6.68751C6.35123 6.67162 6.33799 6.65507 6.32541 6.63917C6.30753 6.66632 6.29097 6.69347 6.27641 6.72195C6.06317 7.09476 5.94265 7.52585 5.94265 7.98541C5.94265 7.99932 5.94265 8.01455 5.94331 8.02846C5.94861 8.3728 6.02145 8.70058 6.15191 8.99857C6.20754 9.13101 6.27508 9.25616 6.35256 9.3747C6.58103 9.72632 6.89293 10.019 7.26112 10.2216C7.27767 10.2322 7.29489 10.2408 7.31211 10.2488C7.28562 10.2541 7.25846 10.2587 7.23131 10.2614C7.15582 10.2713 7.07768 10.2766 6.99954 10.2766C6.60751 10.2766 6.24263 10.1541 5.94397 9.94551C5.94199 9.96736 5.94198 9.98988 5.94198 10.0124C5.94198 10.7421 6.24793 11.4004 6.73797 11.8645C7.1194 12.2288 7.61275 12.4731 8.16106 12.5446C7.96372 12.6168 7.75049 12.6559 7.52865 12.6559C7.28827 12.6559 7.05782 12.6102 6.84723 12.5261C7.16112 13.5465 8.09683 14.2948 9.21199 14.3279C8.53058 15.0358 7.57368 15.4755 6.5148 15.4755C5.85656 15.4755 5.23805 15.3053 4.70166 15.0073C5.99099 16.1231 7.67235 16.7972 9.51132 16.7972C13.5753 16.7972 16.8692 13.5035 16.8692 9.43959C16.8692 9.21577 16.8592 8.9946 16.8394 8.77607C17.5115 8.51053 18.0446 7.9682 18.2969 7.28812V7.28746Z" fill="#567DFF"/>
</svg>
